<svg xmlns="http://www.w3.org/2000/svg" viewBox="0 0 1200 80" width="100%" height="80" fill="none">
  <path d="M 0 40 C 150 10, 300 70, 450 40 C 600 10, 750 70, 900 40 C 1050 10, 1200 40, 1200 40" stroke="#7fff00" stroke-width="4" stroke-linecap="round"/>
  <path d="M 120 32 Q 130 15, 145 28 Z" fill="#240046" stroke="#7fff00" stroke-width="1.5"/>
  <path d="M 520 48 Q 530 65, 545 52 Z" fill="#240046" stroke="#7fff00" stroke-width="1.5"/>
  <path d="M 820 32 Q 830 15, 845 28 Z" fill="#240046" stroke="#7fff00" stroke-width="1.5"/>
  <line x1="280" y1="48" x2="285" y2="60" stroke="#7fff00" stroke-width="2"/>
  <line x1="700" y1="32" x2="695" y2="20" stroke="#7fff00" stroke-width="2"/>
  <g transform="translate(380, 45)">
    <line x1="0" y1="0" x2="0" y2="20" stroke="#5a189a" stroke-width="1" stroke-dasharray="2 2"/>
    <circle cx="0" cy="22" r="4" fill="#0d1117" stroke="#ff7518" stroke-width="1"/>
  </g>
  <g transform="translate(980, 32)">
    <line x1="0" y1="0" x2="0" y2="25" stroke="#5a189a" stroke-width="1" stroke-dasharray="2 2"/>
    <circle cx="0" cy="27" r="4" fill="#0d1117" stroke="#ff7518" stroke-width="1"/>
  </g>
</svg>